<mxfile host="app.diagrams.net" modified="2023-06-28T07:01:17.750Z" agent="Mozilla/5.0 (Macintosh; Intel Mac OS X 10_15_7) AppleWebKit/605.1.15 (KHTML, like Gecko) Version/16.5.1 Safari/605.1.15" etag="dCHpP3PR949Uu0R9NdNp" version="21.5.1" type="github">
  <diagram name="Page-1" id="NDKsp-IjWkwCeQxPeRXT">
    <mxGraphModel dx="1590" dy="1078" grid="1" gridSize="10" guides="1" tooltips="1" connect="1" arrows="1" fold="1" page="0" pageScale="1" pageWidth="1654" pageHeight="1169" background="none" math="0" shadow="0">
      <root>
        <mxCell id="0" />
        <mxCell id="1" parent="0" />
        <mxCell id="uRefnjCFfdxg6NVvjbrm-53" style="edgeStyle=orthogonalEdgeStyle;rounded=0;orthogonalLoop=1;jettySize=auto;html=1;entryX=0;entryY=0.5;entryDx=0;entryDy=0;fontColor=#000000;" parent="1" source="uRefnjCFfdxg6NVvjbrm-67" target="uRefnjCFfdxg6NVvjbrm-62" edge="1">
          <mxGeometry relative="1" as="geometry" />
        </mxCell>
        <mxCell id="uRefnjCFfdxg6NVvjbrm-54" value="BetaHost&lt;br&gt;Event generation program" style="rounded=1;whiteSpace=wrap;html=1;fillColor=#dae8fc;strokeColor=#6c8ebf;fontColor=#000000;" parent="1" vertex="1">
          <mxGeometry x="935" y="260" width="120" height="60" as="geometry" />
        </mxCell>
        <mxCell id="uRefnjCFfdxg6NVvjbrm-55" value="Push&amp;nbsp;&lt;br&gt;to&amp;nbsp;&lt;br&gt;Kafka" style="edgeStyle=orthogonalEdgeStyle;rounded=0;orthogonalLoop=1;jettySize=auto;html=1;entryX=0;entryY=0.5;entryDx=0;entryDy=0;fontColor=#000000;" parent="1" source="uRefnjCFfdxg6NVvjbrm-57" target="uRefnjCFfdxg6NVvjbrm-63" edge="1">
          <mxGeometry relative="1" as="geometry" />
        </mxCell>
        <mxCell id="uRefnjCFfdxg6NVvjbrm-56" style="edgeStyle=orthogonalEdgeStyle;rounded=0;orthogonalLoop=1;jettySize=auto;html=1;entryX=0;entryY=0.75;entryDx=0;entryDy=0;fontColor=#000000;" parent="1" source="uRefnjCFfdxg6NVvjbrm-57" target="uRefnjCFfdxg6NVvjbrm-70" edge="1">
          <mxGeometry relative="1" as="geometry" />
        </mxCell>
        <mxCell id="uRefnjCFfdxg6NVvjbrm-57" value="zDIH&lt;br&gt;Cache" style="shape=parallelogram;html=1;strokeWidth=2;perimeter=parallelogramPerimeter;whiteSpace=wrap;rounded=1;arcSize=12;size=0.23;fillColor=#dae8fc;strokeColor=#6c8ebf;fontColor=#000000;" parent="1" vertex="1">
          <mxGeometry x="1391" y="260" width="100" height="60" as="geometry" />
        </mxCell>
        <mxCell id="uRefnjCFfdxg6NVvjbrm-58" value="DB2 DB" style="strokeWidth=2;html=1;shape=mxgraph.flowchart.database;whiteSpace=wrap;fillColor=#d5e8d4;strokeColor=#82b366;fontColor=#000000;" parent="1" vertex="1">
          <mxGeometry x="1046" y="140" width="60" height="60" as="geometry" />
        </mxCell>
        <mxCell id="uRefnjCFfdxg6NVvjbrm-59" value="Push&amp;nbsp;&lt;br&gt;to &lt;br&gt;Cache" style="edgeStyle=orthogonalEdgeStyle;rounded=0;orthogonalLoop=1;jettySize=auto;html=1;entryX=0;entryY=0.5;entryDx=0;entryDy=0;fontColor=#000000;" parent="1" source="uRefnjCFfdxg6NVvjbrm-62" target="uRefnjCFfdxg6NVvjbrm-57" edge="1">
          <mxGeometry relative="1" as="geometry" />
        </mxCell>
        <mxCell id="uRefnjCFfdxg6NVvjbrm-60" value="Retrieve&lt;br&gt;Data for Cache&lt;br&gt;(future)" style="edgeStyle=orthogonalEdgeStyle;rounded=0;orthogonalLoop=1;jettySize=auto;html=1;entryX=1;entryY=0.85;entryDx=0;entryDy=0;entryPerimeter=0;exitX=0.25;exitY=0;exitDx=0;exitDy=0;dashed=1;fontColor=#000000;" parent="1" source="uRefnjCFfdxg6NVvjbrm-62" target="uRefnjCFfdxg6NVvjbrm-58" edge="1">
          <mxGeometry relative="1" as="geometry" />
        </mxCell>
        <mxCell id="uRefnjCFfdxg6NVvjbrm-61" style="edgeStyle=orthogonalEdgeStyle;rounded=0;orthogonalLoop=1;jettySize=auto;html=1;entryX=1;entryY=0.5;entryDx=0;entryDy=0;exitX=0;exitY=0.25;exitDx=0;exitDy=0;dashed=1;fontColor=#000000;" parent="1" source="uRefnjCFfdxg6NVvjbrm-70" target="uRefnjCFfdxg6NVvjbrm-73" edge="1">
          <mxGeometry relative="1" as="geometry" />
        </mxCell>
        <mxCell id="uRefnjCFfdxg6NVvjbrm-62" value="Cach Loader&lt;br&gt;Java" style="rounded=1;whiteSpace=wrap;html=1;fillColor=#dae8fc;strokeColor=#6c8ebf;fontColor=#000000;" parent="1" vertex="1">
          <mxGeometry x="1206" y="260" width="120" height="60" as="geometry" />
        </mxCell>
        <mxCell id="uRefnjCFfdxg6NVvjbrm-63" value="Z Kafka" style="shape=process;whiteSpace=wrap;html=1;backgroundOutline=1;fillColor=#dae8fc;strokeColor=#6c8ebf;fontColor=#000000;" parent="1" vertex="1">
          <mxGeometry x="1561" y="330" width="120" height="60" as="geometry" />
        </mxCell>
        <mxCell id="uRefnjCFfdxg6NVvjbrm-64" style="edgeStyle=orthogonalEdgeStyle;rounded=0;orthogonalLoop=1;jettySize=auto;html=1;entryX=0.38;entryY=1.05;entryDx=0;entryDy=0;entryPerimeter=0;fontColor=#000000;" parent="1" source="uRefnjCFfdxg6NVvjbrm-65" target="uRefnjCFfdxg6NVvjbrm-57" edge="1">
          <mxGeometry relative="1" as="geometry" />
        </mxCell>
        <mxCell id="uRefnjCFfdxg6NVvjbrm-65" value="Existing&amp;nbsp; Cobol API" style="rounded=1;whiteSpace=wrap;html=1;fillColor=#ffe6cc;strokeColor=#d79b00;fontColor=#000000;" parent="1" vertex="1">
          <mxGeometry x="1271" y="460" width="120" height="60" as="geometry" />
        </mxCell>
        <mxCell id="uRefnjCFfdxg6NVvjbrm-66" value="" style="edgeStyle=orthogonalEdgeStyle;rounded=0;orthogonalLoop=1;jettySize=auto;html=1;entryX=0.5;entryY=0;entryDx=0;entryDy=0;entryPerimeter=0;fontColor=#000000;" parent="1" source="uRefnjCFfdxg6NVvjbrm-54" target="uRefnjCFfdxg6NVvjbrm-67" edge="1">
          <mxGeometry relative="1" as="geometry">
            <mxPoint x="1030" y="290" as="sourcePoint" />
            <mxPoint x="1220" y="290" as="targetPoint" />
          </mxGeometry>
        </mxCell>
        <mxCell id="uRefnjCFfdxg6NVvjbrm-67" value="" style="shape=cylinder3;whiteSpace=wrap;html=1;boundedLbl=1;backgroundOutline=1;size=15;rotation=-90;fontColor=#000000;" parent="1" vertex="1">
          <mxGeometry x="1120" y="240" width="20" height="100" as="geometry" />
        </mxCell>
        <mxCell id="uRefnjCFfdxg6NVvjbrm-68" value="Pipe" style="text;whiteSpace=wrap;html=1;fontColor=#000000;" parent="1" vertex="1">
          <mxGeometry x="1120" y="280" width="60" height="30" as="geometry" />
        </mxCell>
        <mxCell id="uRefnjCFfdxg6NVvjbrm-69" style="edgeStyle=orthogonalEdgeStyle;rounded=0;orthogonalLoop=1;jettySize=auto;html=1;entryX=0;entryY=0.5;entryDx=0;entryDy=0;exitX=0.5;exitY=0;exitDx=0;exitDy=0;fontColor=#000000;" parent="1" source="uRefnjCFfdxg6NVvjbrm-70" target="uRefnjCFfdxg6NVvjbrm-99" edge="1">
          <mxGeometry relative="1" as="geometry" />
        </mxCell>
        <mxCell id="uRefnjCFfdxg6NVvjbrm-70" value="AWS Kafka" style="shape=process;whiteSpace=wrap;html=1;backgroundOutline=1;fillColor=#dae8fc;strokeColor=#6c8ebf;fontColor=#000000;" parent="1" vertex="1">
          <mxGeometry x="1652" y="245" width="120" height="60" as="geometry" />
        </mxCell>
        <mxCell id="uRefnjCFfdxg6NVvjbrm-71" style="edgeStyle=orthogonalEdgeStyle;rounded=0;orthogonalLoop=1;jettySize=auto;html=1;entryX=0.5;entryY=0;entryDx=0;entryDy=0;entryPerimeter=0;dashed=1;fontColor=#000000;" parent="1" source="uRefnjCFfdxg6NVvjbrm-73" target="uRefnjCFfdxg6NVvjbrm-58" edge="1">
          <mxGeometry relative="1" as="geometry" />
        </mxCell>
        <mxCell id="uRefnjCFfdxg6NVvjbrm-72" style="edgeStyle=orthogonalEdgeStyle;rounded=0;orthogonalLoop=1;jettySize=auto;html=1;entryX=0.364;entryY=-0.017;entryDx=0;entryDy=0;entryPerimeter=0;dashed=1;fontColor=#000000;" parent="1" source="uRefnjCFfdxg6NVvjbrm-73" target="uRefnjCFfdxg6NVvjbrm-70" edge="1">
          <mxGeometry relative="1" as="geometry">
            <Array as="points">
              <mxPoint x="1696" y="100" />
            </Array>
          </mxGeometry>
        </mxCell>
        <mxCell id="uRefnjCFfdxg6NVvjbrm-73" value="Event Enricher" style="rounded=1;whiteSpace=wrap;html=1;fillColor=#dae8fc;strokeColor=#6c8ebf;dashed=1;fontColor=#000000;" parent="1" vertex="1">
          <mxGeometry x="1471" y="90" width="120" height="60" as="geometry" />
        </mxCell>
        <mxCell id="uRefnjCFfdxg6NVvjbrm-74" style="edgeStyle=orthogonalEdgeStyle;rounded=0;orthogonalLoop=1;jettySize=auto;html=1;entryX=0.593;entryY=1;entryDx=0;entryDy=0;entryPerimeter=0;fontColor=#000000;" parent="1" source="uRefnjCFfdxg6NVvjbrm-75" target="uRefnjCFfdxg6NVvjbrm-57" edge="1">
          <mxGeometry relative="1" as="geometry" />
        </mxCell>
        <mxCell id="uRefnjCFfdxg6NVvjbrm-75" value="New zCX API" style="rounded=1;whiteSpace=wrap;html=1;fillColor=#f8cecc;strokeColor=#b85450;fontColor=#000000;" parent="1" vertex="1">
          <mxGeometry x="1421" y="460" width="120" height="60" as="geometry" />
        </mxCell>
        <mxCell id="uRefnjCFfdxg6NVvjbrm-76" style="edgeStyle=orthogonalEdgeStyle;rounded=0;orthogonalLoop=1;jettySize=auto;html=1;entryX=0.5;entryY=1;entryDx=0;entryDy=0;fontColor=#000000;" parent="1" source="uRefnjCFfdxg6NVvjbrm-77" target="uRefnjCFfdxg6NVvjbrm-63" edge="1">
          <mxGeometry relative="1" as="geometry" />
        </mxCell>
        <mxCell id="uRefnjCFfdxg6NVvjbrm-77" value="New zCX API" style="rounded=1;whiteSpace=wrap;html=1;fillColor=#f8cecc;strokeColor=#b85450;fontColor=#000000;" parent="1" vertex="1">
          <mxGeometry x="1561" y="460" width="120" height="60" as="geometry" />
        </mxCell>
        <mxCell id="uRefnjCFfdxg6NVvjbrm-78" style="edgeStyle=orthogonalEdgeStyle;rounded=0;orthogonalLoop=1;jettySize=auto;html=1;entryX=0.567;entryY=1.022;entryDx=0;entryDy=0;entryPerimeter=0;fontColor=#000000;" parent="1" source="uRefnjCFfdxg6NVvjbrm-84" target="uRefnjCFfdxg6NVvjbrm-75" edge="1">
          <mxGeometry relative="1" as="geometry" />
        </mxCell>
        <mxCell id="uRefnjCFfdxg6NVvjbrm-79" style="edgeStyle=orthogonalEdgeStyle;rounded=0;orthogonalLoop=1;jettySize=auto;html=1;entryX=0.5;entryY=1;entryDx=0;entryDy=0;fontColor=#000000;" parent="1" source="uRefnjCFfdxg6NVvjbrm-84" target="uRefnjCFfdxg6NVvjbrm-77" edge="1">
          <mxGeometry relative="1" as="geometry" />
        </mxCell>
        <mxCell id="uRefnjCFfdxg6NVvjbrm-80" style="edgeStyle=orthogonalEdgeStyle;rounded=0;orthogonalLoop=1;jettySize=auto;html=1;entryX=0.5;entryY=1;entryDx=0;entryDy=0;fontColor=#000000;" parent="1" source="uRefnjCFfdxg6NVvjbrm-84" target="uRefnjCFfdxg6NVvjbrm-65" edge="1">
          <mxGeometry relative="1" as="geometry" />
        </mxCell>
        <mxCell id="uRefnjCFfdxg6NVvjbrm-81" style="edgeStyle=orthogonalEdgeStyle;rounded=0;orthogonalLoop=1;jettySize=auto;html=1;entryX=0.5;entryY=1;entryDx=0;entryDy=0;fontColor=#000000;" parent="1" source="uRefnjCFfdxg6NVvjbrm-84" target="uRefnjCFfdxg6NVvjbrm-88" edge="1">
          <mxGeometry relative="1" as="geometry" />
        </mxCell>
        <mxCell id="uRefnjCFfdxg6NVvjbrm-82" style="edgeStyle=orthogonalEdgeStyle;rounded=0;orthogonalLoop=1;jettySize=auto;html=1;entryX=0.75;entryY=1;entryDx=0;entryDy=0;fontColor=#000000;" parent="1" source="uRefnjCFfdxg6NVvjbrm-84" target="uRefnjCFfdxg6NVvjbrm-86" edge="1">
          <mxGeometry relative="1" as="geometry" />
        </mxCell>
        <mxCell id="uRefnjCFfdxg6NVvjbrm-83" style="edgeStyle=orthogonalEdgeStyle;rounded=0;orthogonalLoop=1;jettySize=auto;html=1;entryX=0.5;entryY=1;entryDx=0;entryDy=0;fontColor=#000000;" parent="1" source="uRefnjCFfdxg6NVvjbrm-84" target="uRefnjCFfdxg6NVvjbrm-90" edge="1">
          <mxGeometry relative="1" as="geometry" />
        </mxCell>
        <mxCell id="uRefnjCFfdxg6NVvjbrm-84" value="IIBM API GW" style="rounded=1;whiteSpace=wrap;html=1;fillColor=#ffe6cc;strokeColor=#d79b00;fontColor=#000000;" parent="1" vertex="1">
          <mxGeometry x="1481" y="630" width="120" height="60" as="geometry" />
        </mxCell>
        <mxCell id="uRefnjCFfdxg6NVvjbrm-85" style="edgeStyle=orthogonalEdgeStyle;rounded=0;orthogonalLoop=1;jettySize=auto;html=1;entryX=1;entryY=0.5;entryDx=0;entryDy=0;fontColor=#000000;" parent="1" source="uRefnjCFfdxg6NVvjbrm-86" target="uRefnjCFfdxg6NVvjbrm-70" edge="1">
          <mxGeometry relative="1" as="geometry" />
        </mxCell>
        <mxCell id="uRefnjCFfdxg6NVvjbrm-86" value="New Lambda API" style="rounded=1;whiteSpace=wrap;html=1;fillColor=#f8cecc;strokeColor=#b85450;fontColor=#000000;" parent="1" vertex="1">
          <mxGeometry x="1799" y="245" width="120" height="60" as="geometry" />
        </mxCell>
        <mxCell id="uRefnjCFfdxg6NVvjbrm-87" style="edgeStyle=orthogonalEdgeStyle;rounded=0;orthogonalLoop=1;jettySize=auto;html=1;entryX=1;entryY=0.5;entryDx=0;entryDy=0;fontColor=#000000;" parent="1" source="uRefnjCFfdxg6NVvjbrm-88" target="uRefnjCFfdxg6NVvjbrm-63" edge="1">
          <mxGeometry relative="1" as="geometry" />
        </mxCell>
        <mxCell id="uRefnjCFfdxg6NVvjbrm-88" value="New Lambda API" style="rounded=1;whiteSpace=wrap;html=1;fillColor=#f8cecc;strokeColor=#b85450;fontColor=#000000;" parent="1" vertex="1">
          <mxGeometry x="1733" y="330" width="120" height="60" as="geometry" />
        </mxCell>
        <mxCell id="uRefnjCFfdxg6NVvjbrm-89" style="edgeStyle=orthogonalEdgeStyle;rounded=0;orthogonalLoop=1;jettySize=auto;html=1;entryX=0.5;entryY=1;entryDx=0;entryDy=0;entryPerimeter=0;fontColor=#000000;" parent="1" source="uRefnjCFfdxg6NVvjbrm-90" target="uRefnjCFfdxg6NVvjbrm-91" edge="1">
          <mxGeometry relative="1" as="geometry" />
        </mxCell>
        <mxCell id="uRefnjCFfdxg6NVvjbrm-90" value="New Lambda API" style="rounded=1;whiteSpace=wrap;html=1;fillColor=#f8cecc;strokeColor=#b85450;fontColor=#000000;" parent="1" vertex="1">
          <mxGeometry x="1906" y="470" width="120" height="60" as="geometry" />
        </mxCell>
        <mxCell id="uRefnjCFfdxg6NVvjbrm-91" value="CQRS&amp;nbsp;&lt;br&gt;DB" style="shape=cylinder3;whiteSpace=wrap;html=1;boundedLbl=1;backgroundOutline=1;size=15;fillColor=#dae8fc;strokeColor=#6c8ebf;fontColor=#000000;" parent="1" vertex="1">
          <mxGeometry x="1936" y="235" width="60" height="80" as="geometry" />
        </mxCell>
        <mxCell id="uRefnjCFfdxg6NVvjbrm-92" value="Existing components built in previous recommendations" style="rounded=1;whiteSpace=wrap;html=1;fillColor=#dae8fc;strokeColor=#6c8ebf;fontColor=#000000;" parent="1" vertex="1">
          <mxGeometry x="2081" y="486" width="300" height="60" as="geometry" />
        </mxCell>
        <mxCell id="uRefnjCFfdxg6NVvjbrm-93" value="Existing&amp;nbsp; component to be modified" style="rounded=1;whiteSpace=wrap;html=1;fillColor=#ffe6cc;strokeColor=#d79b00;fontColor=#000000;" parent="1" vertex="1">
          <mxGeometry x="2081" y="556" width="298" height="60" as="geometry" />
        </mxCell>
        <mxCell id="uRefnjCFfdxg6NVvjbrm-94" value="New component build in this recommendation" style="rounded=1;whiteSpace=wrap;html=1;fillColor=#f8cecc;strokeColor=#b85450;fontColor=#000000;" parent="1" vertex="1">
          <mxGeometry x="2081" y="624" width="300" height="60" as="geometry" />
        </mxCell>
        <mxCell id="uRefnjCFfdxg6NVvjbrm-95" style="edgeStyle=orthogonalEdgeStyle;rounded=0;orthogonalLoop=1;jettySize=auto;html=1;entryX=0;entryY=0.5;entryDx=0;entryDy=0;entryPerimeter=0;fontColor=#000000;" parent="1" source="uRefnjCFfdxg6NVvjbrm-97" target="uRefnjCFfdxg6NVvjbrm-58" edge="1">
          <mxGeometry relative="1" as="geometry" />
        </mxCell>
        <mxCell id="uRefnjCFfdxg6NVvjbrm-96" style="edgeStyle=orthogonalEdgeStyle;rounded=0;orthogonalLoop=1;jettySize=auto;html=1;entryX=0.5;entryY=0;entryDx=0;entryDy=0;entryPerimeter=0;fontColor=#000000;" parent="1" source="uRefnjCFfdxg6NVvjbrm-97" target="uRefnjCFfdxg6NVvjbrm-91" edge="1">
          <mxGeometry relative="1" as="geometry">
            <mxPoint x="1971" y="130" as="targetPoint" />
          </mxGeometry>
        </mxCell>
        <mxCell id="uRefnjCFfdxg6NVvjbrm-97" value="Initial Load" style="rounded=1;whiteSpace=wrap;html=1;fillColor=#dae8fc;strokeColor=#6c8ebf;fontColor=#000000;" parent="1" vertex="1">
          <mxGeometry x="1471" y="20" width="120" height="60" as="geometry" />
        </mxCell>
        <mxCell id="uRefnjCFfdxg6NVvjbrm-98" style="edgeStyle=orthogonalEdgeStyle;rounded=0;orthogonalLoop=1;jettySize=auto;html=1;entryX=0.145;entryY=0;entryDx=0;entryDy=4.35;entryPerimeter=0;fontColor=#000000;" parent="1" source="uRefnjCFfdxg6NVvjbrm-99" target="uRefnjCFfdxg6NVvjbrm-91" edge="1">
          <mxGeometry relative="1" as="geometry">
            <Array as="points">
              <mxPoint x="1949" y="102" />
            </Array>
          </mxGeometry>
        </mxCell>
        <mxCell id="uRefnjCFfdxg6NVvjbrm-99" value="Data Change Event Processing Lambda" style="rounded=1;whiteSpace=wrap;html=1;fillColor=#dae8fc;strokeColor=#6c8ebf;fontColor=#000000;" parent="1" vertex="1">
          <mxGeometry x="1799" y="72" width="120" height="60" as="geometry" />
        </mxCell>
        <mxCell id="uRefnjCFfdxg6NVvjbrm-100" value="&lt;h1&gt;Testing - Needed in Current and Target State:&lt;/h1&gt;&lt;p&gt;&lt;/p&gt;&lt;ul style=&quot;font-size: 16px;&quot;&gt;&lt;li&gt;&lt;b&gt;&lt;u&gt;Unit testing&lt;/u&gt;&lt;/b&gt; focuses on generating zUnit test cases and execute the same on zOS.&lt;/li&gt;&lt;li&gt;&lt;b&gt;&lt;u&gt;Mainframe Testing&lt;/u&gt;&lt;/b&gt; focuses on automating the manual testing activities.&lt;/li&gt;&lt;li&gt;&lt;b&gt;&lt;u&gt;API Testing&lt;/u&gt;&lt;/b&gt; will focus on evaluating all the API end points between mainframe and cloud environments.&lt;/li&gt;&lt;li&gt;&lt;b&gt;&lt;u&gt;End to End Workflow Integration testing&lt;/u&gt;&lt;/b&gt; will focus on testing the integration of all the components in the system for event driven scenario. This will include the communication flow from mainframes applications to cloud processes including the middleware components like KAFKA and Lambda processes.&lt;/li&gt;&lt;/ul&gt;&lt;p&gt;&lt;/p&gt;" style="text;html=1;strokeColor=none;fillColor=none;spacing=5;spacingTop=-20;whiteSpace=wrap;overflow=hidden;rounded=0;" parent="1" vertex="1">
          <mxGeometry x="2064" y="47" width="368" height="373" as="geometry" />
        </mxCell>
        <mxCell id="ZjlgmmvDXfDlVqPB2CYz-20" style="edgeStyle=orthogonalEdgeStyle;rounded=0;orthogonalLoop=1;jettySize=auto;html=1;exitX=1;exitY=0.5;exitDx=0;exitDy=0;entryX=0;entryY=0.5;entryDx=0;entryDy=0;" edge="1" parent="1" source="uRefnjCFfdxg6NVvjbrm-102" target="uRefnjCFfdxg6NVvjbrm-54">
          <mxGeometry relative="1" as="geometry" />
        </mxCell>
        <mxCell id="uRefnjCFfdxg6NVvjbrm-102" value="BetaHost&lt;br&gt;Application" style="rounded=1;whiteSpace=wrap;html=1;fillColor=#dae8fc;strokeColor=#6c8ebf;fontColor=#000000;" parent="1" vertex="1">
          <mxGeometry x="700" y="260" width="120" height="60" as="geometry" />
        </mxCell>
        <mxCell id="uRefnjCFfdxg6NVvjbrm-109" style="edgeStyle=orthogonalEdgeStyle;rounded=0;orthogonalLoop=1;jettySize=auto;html=1;exitX=0.5;exitY=0;exitDx=0;exitDy=0;entryX=0.5;entryY=1;entryDx=0;entryDy=0;strokeWidth=7;" parent="1" source="uRefnjCFfdxg6NVvjbrm-103" target="uRefnjCFfdxg6NVvjbrm-102" edge="1">
          <mxGeometry relative="1" as="geometry">
            <Array as="points">
              <mxPoint x="996" y="750" />
              <mxPoint x="760" y="750" />
            </Array>
          </mxGeometry>
        </mxCell>
        <mxCell id="uRefnjCFfdxg6NVvjbrm-110" style="edgeStyle=orthogonalEdgeStyle;rounded=0;orthogonalLoop=1;jettySize=auto;html=1;exitX=1;exitY=0.5;exitDx=0;exitDy=0;entryX=0;entryY=0.5;entryDx=0;entryDy=0;" parent="1" source="uRefnjCFfdxg6NVvjbrm-104" target="uRefnjCFfdxg6NVvjbrm-105" edge="1">
          <mxGeometry relative="1" as="geometry" />
        </mxCell>
        <mxCell id="uRefnjCFfdxg6NVvjbrm-111" style="edgeStyle=orthogonalEdgeStyle;rounded=0;orthogonalLoop=1;jettySize=auto;html=1;exitX=1;exitY=0.5;exitDx=0;exitDy=0;entryX=0;entryY=0.5;entryDx=0;entryDy=0;" parent="1" source="uRefnjCFfdxg6NVvjbrm-105" target="uRefnjCFfdxg6NVvjbrm-107" edge="1">
          <mxGeometry relative="1" as="geometry" />
        </mxCell>
        <mxCell id="uRefnjCFfdxg6NVvjbrm-105" value="Test Automation Scripting (Low Code Solution)" style="rounded=0;whiteSpace=wrap;html=1;fillColor=#008a00;fontColor=#ffffff;strokeColor=#005700;" parent="1" vertex="1">
          <mxGeometry x="937" y="925" width="120" height="60" as="geometry" />
        </mxCell>
        <mxCell id="uRefnjCFfdxg6NVvjbrm-126" style="edgeStyle=orthogonalEdgeStyle;rounded=0;orthogonalLoop=1;jettySize=auto;html=1;exitX=0.5;exitY=0;exitDx=0;exitDy=0;entryX=0.5;entryY=1;entryDx=0;entryDy=0;strokeWidth=6;" parent="1" source="uRefnjCFfdxg6NVvjbrm-112" target="uRefnjCFfdxg6NVvjbrm-84" edge="1">
          <mxGeometry relative="1" as="geometry" />
        </mxCell>
        <mxCell id="uRefnjCFfdxg6NVvjbrm-120" value="" style="swimlane;startSize=0;fillColor=#808080;gradientColor=#808080;strokeColor=#666666;" parent="1" vertex="1">
          <mxGeometry x="765" y="800" width="460" height="200" as="geometry" />
        </mxCell>
        <mxCell id="uRefnjCFfdxg6NVvjbrm-103" value="Mainframe Test Automation" style="shape=process;whiteSpace=wrap;html=1;backgroundOutline=1;fillColor=#d5e8d4;gradientColor=#97d077;strokeColor=#82b366;fontColor=#000000;" parent="uRefnjCFfdxg6NVvjbrm-120" vertex="1">
          <mxGeometry x="121" y="40" width="220" height="60" as="geometry" />
        </mxCell>
        <mxCell id="uRefnjCFfdxg6NVvjbrm-104" value="Test Design and Test Case Optimisation" style="rounded=0;whiteSpace=wrap;html=1;fillColor=#008a00;fontColor=#ffffff;strokeColor=#005700;" parent="uRefnjCFfdxg6NVvjbrm-120" vertex="1">
          <mxGeometry x="20" y="125" width="120" height="60" as="geometry" />
        </mxCell>
        <mxCell id="uRefnjCFfdxg6NVvjbrm-107" value="Automated Test Execution" style="rounded=0;whiteSpace=wrap;html=1;fillColor=#008a00;fontColor=#ffffff;strokeColor=#005700;" parent="uRefnjCFfdxg6NVvjbrm-120" vertex="1">
          <mxGeometry x="320" y="125" width="120" height="60" as="geometry" />
        </mxCell>
        <mxCell id="uRefnjCFfdxg6NVvjbrm-121" value="" style="swimlane;startSize=0;fillColor=#808080;gradientColor=#808080;strokeColor=#666666;" parent="1" vertex="1">
          <mxGeometry x="1250" y="800" width="610" height="200" as="geometry" />
        </mxCell>
        <mxCell id="uRefnjCFfdxg6NVvjbrm-112" value="API Test Automation" style="shape=process;whiteSpace=wrap;html=1;backgroundOutline=1;fillColor=#d5e8d4;gradientColor=#97d077;strokeColor=#82b366;fontColor=#000000;" parent="uRefnjCFfdxg6NVvjbrm-121" vertex="1">
          <mxGeometry x="170" y="20" width="240" height="60" as="geometry" />
        </mxCell>
        <mxCell id="uRefnjCFfdxg6NVvjbrm-122" value="API Specification Parsing" style="rounded=0;whiteSpace=wrap;html=1;fillColor=#008a00;fontColor=#ffffff;strokeColor=#005700;" parent="uRefnjCFfdxg6NVvjbrm-121" vertex="1">
          <mxGeometry x="29" y="125" width="120" height="60" as="geometry" />
        </mxCell>
        <mxCell id="uRefnjCFfdxg6NVvjbrm-114" value="Test Automation Scripting (Low Code Solution)" style="rounded=0;whiteSpace=wrap;html=1;fillColor=#008a00;fontColor=#ffffff;strokeColor=#005700;" parent="uRefnjCFfdxg6NVvjbrm-121" vertex="1">
          <mxGeometry x="329" y="125" width="120" height="60" as="geometry" />
        </mxCell>
        <mxCell id="uRefnjCFfdxg6NVvjbrm-115" value="Automated Test Execution" style="rounded=0;whiteSpace=wrap;html=1;fillColor=#008a00;fontColor=#ffffff;strokeColor=#005700;" parent="uRefnjCFfdxg6NVvjbrm-121" vertex="1">
          <mxGeometry x="479" y="125" width="120" height="60" as="geometry" />
        </mxCell>
        <mxCell id="uRefnjCFfdxg6NVvjbrm-125" style="edgeStyle=orthogonalEdgeStyle;rounded=0;orthogonalLoop=1;jettySize=auto;html=1;exitX=1;exitY=0.5;exitDx=0;exitDy=0;entryX=0;entryY=0.5;entryDx=0;entryDy=0;" parent="uRefnjCFfdxg6NVvjbrm-121" source="uRefnjCFfdxg6NVvjbrm-114" target="uRefnjCFfdxg6NVvjbrm-115" edge="1">
          <mxGeometry relative="1" as="geometry" />
        </mxCell>
        <mxCell id="uRefnjCFfdxg6NVvjbrm-113" value="Test Design and Test Case Optimisation" style="rounded=0;whiteSpace=wrap;html=1;fillColor=#008a00;fontColor=#ffffff;strokeColor=#005700;" parent="uRefnjCFfdxg6NVvjbrm-121" vertex="1">
          <mxGeometry x="180" y="125" width="120" height="60" as="geometry" />
        </mxCell>
        <mxCell id="uRefnjCFfdxg6NVvjbrm-124" style="edgeStyle=orthogonalEdgeStyle;rounded=0;orthogonalLoop=1;jettySize=auto;html=1;exitX=1;exitY=0.5;exitDx=0;exitDy=0;entryX=0;entryY=0.5;entryDx=0;entryDy=0;" parent="uRefnjCFfdxg6NVvjbrm-121" source="uRefnjCFfdxg6NVvjbrm-113" target="uRefnjCFfdxg6NVvjbrm-114" edge="1">
          <mxGeometry relative="1" as="geometry" />
        </mxCell>
        <mxCell id="uRefnjCFfdxg6NVvjbrm-123" style="edgeStyle=orthogonalEdgeStyle;rounded=0;orthogonalLoop=1;jettySize=auto;html=1;exitX=1;exitY=0.5;exitDx=0;exitDy=0;entryX=0;entryY=0.5;entryDx=0;entryDy=0;" parent="uRefnjCFfdxg6NVvjbrm-121" source="uRefnjCFfdxg6NVvjbrm-122" target="uRefnjCFfdxg6NVvjbrm-113" edge="1">
          <mxGeometry relative="1" as="geometry" />
        </mxCell>
        <mxCell id="uRefnjCFfdxg6NVvjbrm-128" value="End to End Workflow Integration Testing" style="shape=process;whiteSpace=wrap;html=1;backgroundOutline=1;fillColor=#d5e8d4;gradientColor=#97d077;strokeColor=#82b366;fontColor=#000000;" parent="1" vertex="1">
          <mxGeometry x="2050" y="820" width="220" height="60" as="geometry" />
        </mxCell>
        <mxCell id="uRefnjCFfdxg6NVvjbrm-129" style="edgeStyle=orthogonalEdgeStyle;rounded=0;orthogonalLoop=1;jettySize=auto;html=1;exitX=1;exitY=0.5;exitDx=0;exitDy=0;entryX=0;entryY=0.5;entryDx=0;entryDy=0;" parent="1" source="uRefnjCFfdxg6NVvjbrm-130" target="uRefnjCFfdxg6NVvjbrm-132" edge="1">
          <mxGeometry relative="1" as="geometry" />
        </mxCell>
        <mxCell id="uRefnjCFfdxg6NVvjbrm-130" value="Test Design and Test Case Optimisation" style="rounded=0;whiteSpace=wrap;html=1;fillColor=#008a00;fontColor=#ffffff;strokeColor=#005700;" parent="1" vertex="1">
          <mxGeometry x="1930" y="925" width="120" height="60" as="geometry" />
        </mxCell>
        <mxCell id="uRefnjCFfdxg6NVvjbrm-131" style="edgeStyle=orthogonalEdgeStyle;rounded=0;orthogonalLoop=1;jettySize=auto;html=1;exitX=1;exitY=0.5;exitDx=0;exitDy=0;entryX=0;entryY=0.5;entryDx=0;entryDy=0;" parent="1" source="uRefnjCFfdxg6NVvjbrm-132" target="uRefnjCFfdxg6NVvjbrm-133" edge="1">
          <mxGeometry relative="1" as="geometry" />
        </mxCell>
        <mxCell id="uRefnjCFfdxg6NVvjbrm-132" value="Test Automation Scripting (Low Code Solution)" style="rounded=0;whiteSpace=wrap;html=1;fillColor=#008a00;fontColor=#ffffff;strokeColor=#005700;" parent="1" vertex="1">
          <mxGeometry x="2101" y="925" width="120" height="60" as="geometry" />
        </mxCell>
        <mxCell id="uRefnjCFfdxg6NVvjbrm-133" value="Automated Test Execution" style="rounded=0;whiteSpace=wrap;html=1;fillColor=#008a00;fontColor=#ffffff;strokeColor=#005700;" parent="1" vertex="1">
          <mxGeometry x="2264" y="925" width="120" height="60" as="geometry" />
        </mxCell>
        <mxCell id="uRefnjCFfdxg6NVvjbrm-134" value="" style="swimlane;startSize=0;fillColor=#808080;gradientColor=#808080;strokeColor=#666666;" parent="1" vertex="1">
          <mxGeometry x="1890" y="800" width="509" height="200" as="geometry" />
        </mxCell>
        <mxCell id="ZjlgmmvDXfDlVqPB2CYz-8" style="edgeStyle=orthogonalEdgeStyle;rounded=0;orthogonalLoop=1;jettySize=auto;html=1;exitX=0.5;exitY=0;exitDx=0;exitDy=0;entryX=0;entryY=0.5;entryDx=0;entryDy=0;strokeWidth=6;" edge="1" parent="1" source="ZjlgmmvDXfDlVqPB2CYz-1" target="uRefnjCFfdxg6NVvjbrm-102">
          <mxGeometry relative="1" as="geometry" />
        </mxCell>
        <mxCell id="ZjlgmmvDXfDlVqPB2CYz-2" style="edgeStyle=orthogonalEdgeStyle;rounded=0;orthogonalLoop=1;jettySize=auto;html=1;exitX=1;exitY=0.5;exitDx=0;exitDy=0;entryX=0;entryY=0.5;entryDx=0;entryDy=0;" edge="1" parent="1" source="ZjlgmmvDXfDlVqPB2CYz-3" target="ZjlgmmvDXfDlVqPB2CYz-5">
          <mxGeometry relative="1" as="geometry" />
        </mxCell>
        <mxCell id="ZjlgmmvDXfDlVqPB2CYz-4" style="edgeStyle=orthogonalEdgeStyle;rounded=0;orthogonalLoop=1;jettySize=auto;html=1;exitX=1;exitY=0.5;exitDx=0;exitDy=0;entryX=0;entryY=0.5;entryDx=0;entryDy=0;" edge="1" parent="1" source="ZjlgmmvDXfDlVqPB2CYz-5" target="ZjlgmmvDXfDlVqPB2CYz-6">
          <mxGeometry relative="1" as="geometry" />
        </mxCell>
        <mxCell id="ZjlgmmvDXfDlVqPB2CYz-5" value="Automate Data Parametrization" style="rounded=0;whiteSpace=wrap;html=1;fillColor=#008a00;fontColor=#ffffff;strokeColor=#005700;" vertex="1" parent="1">
          <mxGeometry x="465" y="925" width="120" height="60" as="geometry" />
        </mxCell>
        <mxCell id="ZjlgmmvDXfDlVqPB2CYz-7" value="" style="swimlane;startSize=0;fillColor=#808080;gradientColor=#808080;strokeColor=#666666;spacingLeft=1;" vertex="1" parent="1">
          <mxGeometry x="300" y="800" width="450" height="200" as="geometry" />
        </mxCell>
        <mxCell id="ZjlgmmvDXfDlVqPB2CYz-6" value="Automated Test Execution" style="rounded=0;whiteSpace=wrap;html=1;fillColor=#008a00;fontColor=#ffffff;strokeColor=#005700;" vertex="1" parent="ZjlgmmvDXfDlVqPB2CYz-7">
          <mxGeometry x="305" y="125" width="120" height="60" as="geometry" />
        </mxCell>
        <mxCell id="ZjlgmmvDXfDlVqPB2CYz-3" value="Generate zUnit test cases using IDz" style="rounded=0;whiteSpace=wrap;html=1;fillColor=#008a00;fontColor=#ffffff;strokeColor=#005700;" vertex="1" parent="ZjlgmmvDXfDlVqPB2CYz-7">
          <mxGeometry x="25" y="125" width="120" height="60" as="geometry" />
        </mxCell>
        <mxCell id="ZjlgmmvDXfDlVqPB2CYz-1" value="Unit Testing on zOS" style="shape=process;whiteSpace=wrap;html=1;backgroundOutline=1;fillColor=#d5e8d4;gradientColor=#97d077;strokeColor=#82b366;fontColor=#000000;" vertex="1" parent="ZjlgmmvDXfDlVqPB2CYz-7">
          <mxGeometry x="65" y="40" width="320" height="60" as="geometry" />
        </mxCell>
        <mxCell id="ZjlgmmvDXfDlVqPB2CYz-16" value="Test Process" style="rounded=0;whiteSpace=wrap;html=1;fillColor=#008a00;fontColor=#ffffff;strokeColor=#005700;" vertex="1" parent="1">
          <mxGeometry x="2084" y="698" width="300" height="60" as="geometry" />
        </mxCell>
        <mxCell id="ZjlgmmvDXfDlVqPB2CYz-17" value="&lt;font style=&quot;font-size: 22px;&quot;&gt;&lt;b&gt;Legend&lt;/b&gt;&lt;/font&gt;" style="text;html=1;strokeColor=none;fillColor=none;align=center;verticalAlign=middle;whiteSpace=wrap;rounded=0;" vertex="1" parent="1">
          <mxGeometry x="2076" y="430" width="97" height="43" as="geometry" />
        </mxCell>
      </root>
    </mxGraphModel>
  </diagram>
</mxfile>
